<svg xmlns="http://www.w3.org/2000/svg" width="48" height="40" fill="none" viewBox="0 0 48 40"><path fill="#83b3d3" fill-rule="evenodd" d="M35.1 14q.4-1-.8-1h-2.6q-1 0-1.1.7S29.2 17 27.3 19q-.8.9-1.2.8t-.4-.7v-5.2q0-.9-.8-.9h-4q-.8 0-.8.6c0 .6 1 .8 1 2.5V20q.1 1.1-.4 1c-.9 0-3-3.2-4.3-6.9q-.3-1-1.2-1h-2.6q-1.1 0-1 .7c0 .7 1 4.1 4.2 8.6 2.2 3 5.2 4.7 8 4.7 1.7 0 1.9-.4 1.9-1v-2.3q0-1 .7-.9c.4 0 1 .2 2.6 1.7 1.8 1.7 2 2.5 3 2.5h2.7q1.1 0 1-1.1-.5-1.1-2.3-3L31.6 21q-.5-.6 0-1.1s3.2-4.4 3.5-6" clip-rule="evenodd"/></svg>